<?xml version="1.0" encoding="UTF-8" ?>
<svg version="1.1" width="200" height="200" viewBox="0 0 200 200" xmlns="http://www.w3.org/2000/svg" shape-rendering="crispEdges">
<rect x="50" y="10" width="30" height="10" fill="#FFFFFF" />
<rect x="120" y="10" width="10" height="40" fill="#FFFFFF" />
<rect x="170" y="10" width="10" height="20" fill="#FFFFFF" />
<rect x="40" y="20" width="10" height="20" fill="#FFFFFF" />
<rect x="80" y="20" width="20" height="10" fill="#FFFFFF" />
<rect x="150" y="20" width="20" height="10" fill="#FFFFFF" />
<rect x="30" y="30" width="10" height="30" fill="#FFFFFF" />
<rect x="60" y="30" width="10" height="20" fill="#FFFFFF" />
<rect x="90" y="30" width="10" height="150" fill="#FFFFFF" />
<rect x="150" y="30" width="10" height="150" fill="#FFFFFF" />
<rect x="10" y="40" width="20" height="10" fill="#FFFFFF" />
<rect x="100" y="40" width="20" height="10" fill="#FFFFFF" />
<rect x="130" y="40" width="20" height="10" fill="#FFFFFF" />
<rect x="180" y="50" width="10" height="20" fill="#FFFFFF" />
<rect x="10" y="50" width="10" height="40" fill="#FFFFFF" />
<rect x="40" y="50" width="20" height="10" fill="#FFFFFF" />
<rect x="70" y="60" width="10" height="10" fill="#FFFFFF" />
<rect x="170" y="60" width="10" height="30" fill="#FFFFFF" />
<rect x="60" y="70" width="10" height="30" fill="#FFFFFF" />
<rect x="100" y="70" width="30" height="10" fill="#FFFFFF" />
<rect x="20" y="80" width="10" height="20" fill="#FFFFFF" />
<rect x="120" y="80" width="10" height="50" fill="#FFFFFF" />
<rect x="160" y="80" width="10" height="10" fill="#FFFFFF" />
<rect x="70" y="90" width="10" height="10" fill="#FFFFFF" />
<rect x="10" y="100" width="10" height="30" fill="#FFFFFF" />
<rect x="40" y="110" width="10" height="20" fill="#FFFFFF" />
<rect x="160" y="110" width="20" height="10" fill="#FFFFFF" />
<rect x="100" y="120" width="20" height="10" fill="#FFFFFF" />
<rect x="170" y="120" width="10" height="20" fill="#FFFFFF" />
<rect x="20" y="130" width="20" height="10" fill="#FFFFFF" />
<rect x="180" y="130" width="10" height="20" fill="#FFFFFF" />
<rect x="20" y="140" width="10" height="20" fill="#FFFFFF" />
<rect x="60" y="140" width="20" height="10" fill="#FFFFFF" />
<rect x="50" y="150" width="10" height="30" fill="#FFFFFF" />
<rect x="100" y="150" width="50" height="10" fill="#FFFFFF" />
<rect x="30" y="160" width="20" height="10" fill="#FFFFFF" />
<rect x="120" y="160" width="10" height="30" fill="#FFFFFF" />
<rect x="60" y="170" width="10" height="20" fill="#FFFFFF" />
<rect x="80" y="170" width="10" height="10" fill="#FFFFFF" />
<rect x="160" y="170" width="20" height="10" fill="#FFFFFF" />
<rect x="70" y="180" width="10" height="10" fill="#FFFFFF" />
<rect x="170" y="180" width="10" height="10" fill="#FFFFFF" />
</svg>