<?xml version="1.0" encoding="UTF-8" ?>
<svg version="1.1" width="1348" height="186" viewBox="0 0 1348 186" xmlns="http://www.w3.org/2000/svg" shape-rendering="crispEdges">
<rect x="326" y="0" width="46" height="186" fill="#FFFFFF" />
<rect x="791" y="0" width="46" height="186" fill="#FFFFFF" />
<rect x="1070" y="0" width="46" height="140" fill="#FFFFFF" />
<rect x="47" y="47" width="93" height="46" fill="#FFFFFF" />
<rect x="186" y="47" width="93" height="46" fill="#FFFFFF" />
<rect x="512" y="47" width="139" height="46" fill="#FFFFFF" />
<rect x="744" y="47" width="47" height="46" fill="#FFFFFF" />
<rect x="884" y="47" width="46" height="139" fill="#FFFFFF" />
<rect x="977" y="47" width="46" height="139" fill="#FFFFFF" />
<rect x="1209" y="47" width="139" height="46" fill="#FFFFFF" />
<rect x="47" y="93" width="46" height="93" fill="#FFFFFF" />
<rect x="186" y="93" width="47" height="93" fill="#FFFFFF" />
<rect x="372" y="93" width="47" height="47" fill="#FFFFFF" />
<rect x="512" y="93" width="46" height="93" fill="#FFFFFF" />
<rect x="605" y="93" width="46" height="47" fill="#FFFFFF" />
<rect x="698" y="93" width="46" height="47" fill="#FFFFFF" />
<rect x="1209" y="93" width="47" height="93" fill="#FFFFFF" />
<rect x="1302" y="93" width="46" height="47" fill="#FFFFFF" />
<rect x="0" y="140" width="47" height="46" fill="#FFFFFF" />
<rect x="233" y="140" width="46" height="46" fill="#FFFFFF" />
<rect x="419" y="140" width="46" height="46" fill="#FFFFFF" />
<rect x="558" y="140" width="47" height="46" fill="#FFFFFF" />
<rect x="744" y="140" width="47" height="46" fill="#FFFFFF" />
<rect x="930" y="140" width="47" height="46" fill="#FFFFFF" />
<rect x="1116" y="140" width="47" height="46" fill="#FFFFFF" />
<rect x="1256" y="140" width="46" height="46" fill="#FFFFFF" />
</svg>